HIERARCHY
ROOT Hips
{
  OFFSET 0 0 0
  CHANNELS 6 Xposition Yposition Zposition Zrotation Yrotation Xrotation
  JOINT LeftThigh
  {
    OFFSET 8.409438 0 -5.917753
    CHANNELS 3 Zrotation Yrotation Xrotation
    JOINT LeftLeg
    {
      OFFSET 0 0 -42.358652
      CHANNELS 3 Zrotation Yrotation Xrotation
      JOINT LeftFoot
      {
        OFFSET 0 0 -39.357303
        CHANNELS 3 Zrotation Yrotation Xrotation
      }
    }
  }
  JOINT RightThigh
  {
    OFFSET -8.409438 0 -5.917753
    CHANNELS 3 Zrotation Yrotation Xrotation
    JOINT RightLeg
    {
      OFFSET 0 0 -42.358652
      CHANNELS 3 Zrotation Yrotation Xrotation
      JOINT RightFoot
      {
        OFFSET 0 0 -39.357303
        CHANNELS 3 Zrotation Yrotation Xrotation
      }
    }
  }
  JOINT SpineLow
  {
    OFFSET 0 0 4.719101
    CHANNELS 3 Zrotation Yrotation Xrotation
    JOINT SpineMid
    {
      OFFSET 0 0 12.899191
      CHANNELS 3 Zrotation Yrotation Xrotation
      JOINT Chest
      {
        OFFSET 0 0 12.899191
        CHANNELS 3 Zrotation Yrotation Xrotation
        JOINT LeftShoulder
        {
          OFFSET 7.550562 1.41573 9.438202
          CHANNELS 3 Zrotation Yrotation Xrotation
          JOINT LeftArm
          {
            OFFSET 9.155056 0 4.247191
            CHANNELS 3 Zrotation Yrotation Xrotation
            JOINT LeftForearm
            {
              OFFSET 0 0 25.771955
              CHANNELS 3 Zrotation Yrotation Xrotation
              JOINT LeftHand
              {
                OFFSET 0 0 25.197169
                CHANNELS 3 Zrotation Yrotation Xrotation
              }
            }
          }
        }
        JOINT RightShoulder
        {
          OFFSET -7.550562 1.41573 9.438202
          CHANNELS 3 Zrotation Yrotation Xrotation
          JOINT RightArm
          {
            OFFSET -9.155056 0 4.247191
            CHANNELS 3 Zrotation Yrotation Xrotation
            JOINT RightForearm
            {
              OFFSET 0 0 -25.771955
              CHANNELS 3 Zrotation Yrotation Xrotation
              JOINT RightHand
              {
                OFFSET 0 0 -25.197169
                CHANNELS 3 Zrotation Yrotation Xrotation
              }
            }
          }
        }
        JOINT Neck
        {
          OFFSET 0 0 15.101124
          CHANNELS 3 Zrotation Yrotation Xrotation
          JOINT Head
          {
            OFFSET 0 0 11.325843
            CHANNELS 3 Zrotation Yrotation Xrotation
            End Site
            {
              OFFSET 0 0 14.157303
            }
          }
        }
      }
    }
  }
}
MOTION
Frames: 7
Frame Time: 0.0
0.0  93.25843  0.0  -0.389567  -25.495262  -88.515235  7.066372  -15.366887  -9.250306  7.729716  -1.809523  23.535835  11.259613  1.97296  6.216417  -2.157062  -3.321433  -18.693954  -8.196135  14.283242  15.821057  4.508602  1.666952  0.602984  4.235978  0.609335  -0.809995  11.559333  1.801064  -2.100197  11.559333  1.801064  -2.100197  -29.572441  13.135779  5.817779  176.8315  35.807391  -134.680199  -1.175492  -6.245934  91.933871  103.76933  11.766616  -9.389008  2.915668  -22.270307  28.735151  91.979715  49.466696  41.594977  -6.133226  -9.559291  -63.064581  78.410147  -10.661271  15.694796  -9.427077  3.167475  19.85977  -7.180571  2.072302  14.944105  
0.0  93.25843  0.0  -0.368043  -30.755961  -88.470258  8.034281  -15.122174  -7.814919  10.003048  -2.215961  22.694091  11.841386  2.021946  6.29694  -0.119524  -3.484138  -19.087582  -7.05449  13.435988  15.158059  4.439611  1.382903  0.614275  4.396455  0.603295  -0.891687  11.995864  1.804279  -2.319175  11.995864  1.804279  -2.319175  -27.643223  12.096881  6.378555  179.432845  33.830492  -134.454505  0.798924  -10.517792  92.729863  104.436605  13.424426  -8.251163  2.888977  -21.089995  29.09826  92.585645  47.905695  41.571649  -6.388961  -16.717514  -67.577839  76.676615  -12.269801  14.442549  -7.569505  3.428644  20.122738  -5.795955  2.325571  15.132753  
0.0  93.25843  0.0  -0.3924  -36.018418  -88.508058  8.958111  -14.878617  -6.243785  12.13615  -2.461264  21.582812  12.768072  1.974408  6.498997  1.736707  -3.758491  -19.31607  -6.037804  12.698349  14.321906  4.365817  1.119569  0.656975  4.535586  0.592623  -0.972791  12.374197  1.795045  -2.53797  12.374197  1.795045  -2.53797  -25.889233  11.119622  7.142575  -177.871841  31.645229  -134.389871  2.288351  -14.489785  93.311862  104.674409  14.677619  -7.805231  2.566252  -19.812627  29.369873  93.448574  45.875382  41.727164  -5.531874  -23.163645  -72.678059  74.831106  -13.66619  13.167085  -5.631729  3.596935  20.404282  -4.348457  2.513198  15.332853  
0.0  93.25843  0.0  -0.518404  -41.260071  -88.545138  9.949412  -14.790439  -4.623966  14.561167  -2.617403  20.448328  13.828876  1.895055  6.752854  3.408813  -4.246656  -19.300849  -5.024462  12.064251  13.29978  5.799096  1.002743  1.161725  4.693201  0.609707  -1.036883  12.802617  1.859727  -2.704583  12.802616  1.859727  -2.704583  -24.769259  9.902035  7.795424  -175.029877  29.051082  -134.681344  3.121053  -17.796029  93.916604  104.750299  15.534363  -7.84586  1.773448  -18.690385  29.531925  94.594663  43.688785  42.272439  -3.419274  -27.795326  -78.78526  72.418983  -15.093503  11.909898  -3.620853  3.598384  20.60823  -2.840135  2.580248  15.473028  
0.0  93.25843  0.0  -0.718094  -46.376359  -88.628454  11.1505  -14.961565  -2.974097  17.310318  -2.693793  19.471915  14.559138  1.90274  6.987514  5.27321  -4.798785  -18.930548  -4.477364  11.540752  11.971608  6.044851  0.767566  1.248  4.767043  0.586762  -1.113825  13.003004  1.815282  -2.916252  13.003004  1.815282  -2.916252  -23.244518  9.191074  8.717438  -172.14724  25.969103  -134.948544  3.783052  -20.560615  94.426573  104.945759  16.112281  -8.753851  1.210044  -17.692767  29.894479  95.661674  41.593679  43.414498  -0.401553  -31.678453  -85.332738  70.852322  -16.069578  10.339746  -1.566588  3.583431  20.76469  -1.298311  2.637967  15.577727  
0.0  93.25843  0.0  -1.042295  -51.100009  -88.618695  12.425376  -15.194753  -1.476935  20.047303  -2.879572  18.715311  14.612379  1.809716  7.044776  7.209893  -5.225967  -18.377762  -4.141228  10.965058  10.632453  6.438716  0.556395  1.358951  5.205524  0.721176  -0.968925  14.201906  2.168345  -2.480422  14.201906  2.168345  -2.480421  -25.113163  7.906041  8.599491  -168.803137  22.98177  -135.30034  4.085317  -22.624384  94.883921  105.210692  16.673766  -11.230847  -1.740126  -17.395926  28.737549  96.249689  39.77154  44.829326  3.742116  -34.207187  -92.698597  69.532328  -16.894705  8.894191  -1.045618  2.995307  20.062112  -0.883633  2.214985  15.048319  
0.0  93.25843  0.0  -1.502187  -54.985238  -88.435902  13.326344  -15.26059  -0.333019  22.371584  -3.224024  18.278113  14.428656  1.912064  7.09172  8.751017  -5.474671  -17.789429  -3.765353  10.290872  9.553364  6.934395  0.438092  1.408277  5.012705  0.785144  -0.917052  13.674841  2.32474  -2.332888  13.674841  2.32474  -2.332889  -24.181267  7.175915  8.169241  -165.78866  21.204648  -136.832796  3.292811  -23.817381  95.152932  105.252992  17.186458  -15.946893  -1.372458  -17.110623  28.292892  95.585029  38.576009  45.876638  8.621834  -35.201668  -99.936499  68.523114  -17.158295  7.190654  1.2259  2.708481  19.473718  0.833847  2.072942  14.597205  
